<svg xmlns="http://www.w3.org/2000/svg" xmlns:xlink="http://www.w3.org/1999/xlink" width="300" zoomAndPan="magnify" viewBox="0 0 224.87999 38.249999" height="51" preserveAspectRatio="xMidYMid meet" version="1.0"><defs><g/><clipPath id="5951a209bc"><path d="M 2.101562 0 L 222.660156 0 L 222.660156 37.515625 L 2.101562 37.515625 Z M 2.101562 0 " clip-rule="nonzero"/></clipPath></defs><g clip-path="url(#5951a209bc)"><path fill="#ffffff" d="M 2.101562 0 L 222.777344 0 L 222.777344 37.515625 L 2.101562 37.515625 Z M 2.101562 0 " fill-opacity="1" fill-rule="nonzero"/><path fill="#ffffff" d="M 2.101562 0 L 222.777344 0 L 222.777344 37.515625 L 2.101562 37.515625 Z M 2.101562 0 " fill-opacity="1" fill-rule="nonzero"/></g><g fill="#f62c04" fill-opacity="0.4"><g transform="translate(25.791204, 26.599968)"><g><path d="M 0.421875 0 L 7.5 -15.703125 L 15.40625 0 L 10.8125 0 L 8.71875 -4.640625 L 2.828125 -4.640625 L 0.71875 0 Z M 2.953125 -4.921875 L 8.59375 -4.921875 L 5.78125 -11.125 Z M 2.953125 -4.921875 "/></g></g></g><g fill="#f62c04" fill-opacity="0.4"><g transform="translate(41.332177, 26.599968)"><g><path d="M 1.390625 0 L 1.390625 -15.484375 L 7.875 -15.484375 C 9.019531 -15.484375 10.085938 -15.285156 11.078125 -14.890625 C 12.066406 -14.492188 12.929688 -13.941406 13.671875 -13.234375 C 14.421875 -12.523438 15.003906 -11.695312 15.421875 -10.75 C 15.847656 -9.8125 16.0625 -8.8125 16.0625 -7.75 C 16.0625 -6.675781 15.847656 -5.664062 15.421875 -4.71875 C 15.003906 -3.78125 14.421875 -2.957031 13.671875 -2.25 C 12.929688 -1.539062 12.066406 -0.988281 11.078125 -0.59375 C 10.085938 -0.195312 9.019531 0 7.875 0 Z M 5.5625 -0.28125 L 7.875 -0.28125 C 8.65625 -0.28125 9.289062 -0.484375 9.78125 -0.890625 C 10.269531 -1.304688 10.648438 -1.867188 10.921875 -2.578125 C 11.203125 -3.296875 11.390625 -4.097656 11.484375 -4.984375 C 11.585938 -5.878906 11.640625 -6.800781 11.640625 -7.75 C 11.640625 -8.632812 11.582031 -9.515625 11.46875 -10.390625 C 11.363281 -11.273438 11.164062 -12.078125 10.875 -12.796875 C 10.59375 -13.523438 10.210938 -14.109375 9.734375 -14.546875 C 9.253906 -14.992188 8.632812 -15.21875 7.875 -15.21875 L 5.5625 -15.21875 Z M 5.5625 -0.28125 "/></g></g></g><g fill="#f62c04" fill-opacity="0.4"><g transform="translate(57.813362, 26.599968)"><g><path d="M 1.390625 0 L 1.390625 -15.484375 L 5.0625 -15.484375 L 5.0625 0 Z M 1.390625 0 "/></g></g></g><g fill="#f62c04" fill-opacity="0.4"><g transform="translate(63.979916, 26.599968)"><g><path d="M 1.390625 0 L 1.390625 -15.484375 L 5.5625 -15.484375 L 5.5625 -0.28125 L 7.5 -0.28125 C 8.5625 -0.28125 9.570312 -0.492188 10.53125 -0.921875 C 11.488281 -1.359375 12.28125 -1.953125 12.90625 -2.703125 C 13.539062 -3.460938 13.882812 -4.320312 13.9375 -5.28125 L 14.21875 -5.28125 L 13.75 0 Z M 1.390625 0 "/></g></g></g><g fill="#f62c04" fill-opacity="0.4"><g transform="translate(79.299663, 26.599968)"><g><path d="M 0.421875 0 L 7.5 -15.703125 L 15.40625 0 L 10.8125 0 L 8.71875 -4.640625 L 2.828125 -4.640625 L 0.71875 0 Z M 2.953125 -4.921875 L 8.59375 -4.921875 L 5.78125 -11.125 Z M 2.953125 -4.921875 "/></g></g></g><g fill="#f62c04" fill-opacity="0.4"><g transform="translate(94.840632, 26.599968)"><g><path d="M 1.390625 0 L 1.390625 -15.484375 L 5.5625 -15.484375 L 5.5625 -7.96875 L 11.140625 -7.96875 L 11.140625 -15.484375 L 15.328125 -15.484375 L 15.328125 0 L 11.140625 0 L 11.140625 -7.6875 L 5.5625 -7.6875 L 5.5625 0 Z M 1.390625 0 "/></g></g></g><g fill="#f62c04" fill-opacity="0.4"><g transform="translate(111.266503, 26.599968)"><g/></g></g><g fill="#f62c04" fill-opacity="0.4"><g transform="translate(116.603459, 26.599968)"><g><path d="M 6.140625 0 L 6.140625 -15.21875 C 5.066406 -15.21875 4.117188 -15.007812 3.296875 -14.59375 C 2.484375 -14.175781 1.84375 -13.601562 1.375 -12.875 C 0.914062 -12.144531 0.6875 -11.300781 0.6875 -10.34375 L 0.421875 -10.34375 L 0.421875 -15.484375 L 16.046875 -15.484375 L 16.046875 -10.34375 L 15.765625 -10.34375 C 15.765625 -11.300781 15.53125 -12.144531 15.0625 -12.875 C 14.601562 -13.601562 13.960938 -14.175781 13.140625 -14.59375 C 12.328125 -15.007812 11.382812 -15.21875 10.3125 -15.21875 L 10.3125 0 Z M 6.140625 0 "/></g></g></g><g fill="#f62c04" fill-opacity="0.4"><g transform="translate(132.780454, 26.599968)"><g><path d="M 1.390625 0 L 1.390625 -15.484375 L 7.9375 -15.484375 C 9.039062 -15.484375 10.015625 -15.363281 10.859375 -15.125 C 11.710938 -14.882812 12.378906 -14.503906 12.859375 -13.984375 C 13.335938 -13.472656 13.578125 -12.785156 13.578125 -11.921875 C 13.578125 -11.304688 13.347656 -10.734375 12.890625 -10.203125 C 12.441406 -9.671875 11.878906 -9.238281 11.203125 -8.90625 C 10.535156 -8.570312 9.851562 -8.40625 9.15625 -8.40625 C 10.070312 -8.40625 10.8125 -8.285156 11.375 -8.046875 C 11.9375 -7.804688 12.394531 -7.457031 12.75 -7 C 13.101562 -6.539062 13.410156 -5.988281 13.671875 -5.34375 C 13.941406 -4.695312 14.234375 -3.957031 14.546875 -3.125 C 14.878906 -2.28125 15.195312 -1.628906 15.5 -1.171875 C 15.800781 -0.722656 16.046875 -0.414062 16.234375 -0.25 C 16.429688 -0.0820312 16.53125 0 16.53125 0 C 16.53125 0 16.269531 0.03125 15.75 0.09375 C 15.238281 0.15625 14.457031 0.125 13.40625 0 C 12.539062 -0.113281 11.878906 -0.394531 11.421875 -0.84375 C 10.960938 -1.289062 10.609375 -1.828125 10.359375 -2.453125 C 10.109375 -3.085938 9.890625 -3.742188 9.703125 -4.421875 C 9.523438 -5.109375 9.296875 -5.75 9.015625 -6.34375 C 8.734375 -6.945312 8.328125 -7.429688 7.796875 -7.796875 C 7.265625 -8.171875 6.519531 -8.359375 5.5625 -8.359375 L 5.5625 0 Z M 5.5625 -8.578125 L 7.03125 -8.578125 C 7.851562 -8.578125 8.410156 -8.878906 8.703125 -9.484375 C 9.003906 -10.097656 9.15625 -10.882812 9.15625 -11.84375 C 9.15625 -12.8125 8.988281 -13.628906 8.65625 -14.296875 C 8.320312 -14.960938 7.742188 -15.296875 6.921875 -15.296875 L 5.5625 -15.296875 Z M 5.5625 -8.578125 "/></g></g></g><g fill="#f62c04" fill-opacity="0.4"><g transform="translate(149.455206, 26.599968)"><g><path d="M 1.390625 0 L 1.390625 -15.484375 L 5.0625 -15.484375 L 5.0625 0 Z M 1.390625 0 "/></g></g></g><g fill="#f62c04" fill-opacity="0.4"><g transform="translate(155.621757, 26.599968)"><g><path d="M 7.46875 0.28125 C 6.34375 0.28125 5.269531 0.101562 4.25 -0.25 C 3.238281 -0.601562 2.414062 -1.097656 1.78125 -1.734375 C 1.144531 -2.378906 0.828125 -3.15625 0.828125 -4.0625 C 0.828125 -4.613281 1.007812 -5.054688 1.375 -5.390625 C 1.75 -5.722656 2.203125 -5.890625 2.734375 -5.890625 C 3.421875 -5.890625 3.96875 -5.675781 4.375 -5.25 C 4.78125 -4.832031 4.984375 -4.335938 4.984375 -3.765625 C 4.984375 -3.765625 4.910156 -3.738281 4.765625 -3.6875 C 4.628906 -3.644531 4.484375 -3.554688 4.328125 -3.421875 C 4.171875 -3.296875 4.066406 -3.085938 4.015625 -2.796875 C 3.992188 -2.722656 3.984375 -2.648438 3.984375 -2.578125 C 3.984375 -2.503906 3.984375 -2.425781 3.984375 -2.34375 C 3.984375 -1.8125 4.148438 -1.378906 4.484375 -1.046875 C 4.828125 -0.710938 5.253906 -0.46875 5.765625 -0.3125 C 6.285156 -0.15625 6.796875 -0.078125 7.296875 -0.078125 C 7.679688 -0.078125 8.128906 -0.132812 8.640625 -0.25 C 9.148438 -0.363281 9.59375 -0.570312 9.96875 -0.875 C 10.34375 -1.175781 10.53125 -1.601562 10.53125 -2.15625 C 10.53125 -2.75 10.316406 -3.265625 9.890625 -3.703125 C 9.472656 -4.148438 8.921875 -4.554688 8.234375 -4.921875 C 7.554688 -5.285156 6.828125 -5.65625 6.046875 -6.03125 C 5.273438 -6.414062 4.539062 -6.820312 3.84375 -7.25 C 3.144531 -7.6875 2.554688 -8.179688 2.078125 -8.734375 C 1.597656 -9.285156 1.3125 -9.941406 1.21875 -10.703125 C 1.082031 -11.867188 1.273438 -12.816406 1.796875 -13.546875 C 2.328125 -14.285156 3.066406 -14.828125 4.015625 -15.171875 C 4.972656 -15.523438 6.019531 -15.703125 7.15625 -15.703125 C 8.101562 -15.703125 8.988281 -15.546875 9.8125 -15.234375 C 10.644531 -14.921875 11.316406 -14.46875 11.828125 -13.875 C 12.347656 -13.289062 12.609375 -12.582031 12.609375 -11.75 C 12.609375 -11.269531 12.453125 -10.882812 12.140625 -10.59375 C 11.828125 -10.3125 11.429688 -10.171875 10.953125 -10.171875 C 10.359375 -10.171875 9.878906 -10.359375 9.515625 -10.734375 C 9.160156 -11.117188 8.984375 -11.550781 8.984375 -12.03125 C 8.984375 -12.03125 9.0625 -12.054688 9.21875 -12.109375 C 9.375 -12.171875 9.53125 -12.304688 9.6875 -12.515625 C 9.84375 -12.722656 9.921875 -13.0625 9.921875 -13.53125 C 9.921875 -14.082031 9.671875 -14.519531 9.171875 -14.84375 C 8.679688 -15.164062 8.03125 -15.328125 7.21875 -15.328125 C 6.476562 -15.328125 5.835938 -15.164062 5.296875 -14.84375 C 4.753906 -14.53125 4.484375 -14 4.484375 -13.25 C 4.484375 -12.625 4.695312 -12.078125 5.125 -11.609375 C 5.5625 -11.148438 6.117188 -10.734375 6.796875 -10.359375 C 7.484375 -9.992188 8.210938 -9.632812 8.984375 -9.28125 C 9.765625 -8.9375 10.507812 -8.570312 11.21875 -8.1875 C 11.925781 -7.800781 12.519531 -7.359375 13 -6.859375 C 13.476562 -6.359375 13.742188 -5.769531 13.796875 -5.09375 C 13.941406 -3.945312 13.734375 -2.972656 13.171875 -2.171875 C 12.609375 -1.367188 11.820312 -0.757812 10.8125 -0.34375 C 9.800781 0.0703125 8.6875 0.28125 7.46875 0.28125 Z M 7.46875 0.28125 "/></g></g></g><g fill="#f62c04" fill-opacity="0.4"><g transform="translate(170.028944, 26.599968)"><g><path d="M 14.578125 0.4375 L 1.65625 -13.28125 L 1.65625 0 L 1.390625 0 L 1.390625 -15.484375 L 5.8125 -15.484375 L 14.296875 -6.140625 L 14.296875 -15.484375 L 14.578125 -15.484375 Z M 14.578125 0.4375 "/></g></g></g><g fill="#f62c04" fill-opacity="0.4"><g transform="translate(185.708182, 26.599968)"><g><path d="M 0.421875 0 L 7.5 -15.703125 L 15.40625 0 L 10.8125 0 L 8.71875 -4.640625 L 2.828125 -4.640625 L 0.71875 0 Z M 2.953125 -4.921875 L 8.59375 -4.921875 L 5.78125 -11.125 Z M 2.953125 -4.921875 "/></g></g></g><g fill="#d80101" fill-opacity="1"><g transform="translate(24.568638, 25.377402)"><g><path d="M 0.421875 0 L 7.5 -15.703125 L 15.40625 0 L 10.8125 0 L 8.71875 -4.640625 L 2.828125 -4.640625 L 0.71875 0 Z M 2.953125 -4.921875 L 8.59375 -4.921875 L 5.78125 -11.125 Z M 2.953125 -4.921875 "/></g></g></g><g fill="#d80101" fill-opacity="1"><g transform="translate(40.10961, 25.377402)"><g><path d="M 1.390625 0 L 1.390625 -15.484375 L 7.875 -15.484375 C 9.019531 -15.484375 10.085938 -15.285156 11.078125 -14.890625 C 12.066406 -14.492188 12.929688 -13.941406 13.671875 -13.234375 C 14.421875 -12.523438 15.003906 -11.695312 15.421875 -10.75 C 15.847656 -9.8125 16.0625 -8.8125 16.0625 -7.75 C 16.0625 -6.675781 15.847656 -5.664062 15.421875 -4.71875 C 15.003906 -3.78125 14.421875 -2.957031 13.671875 -2.25 C 12.929688 -1.539062 12.066406 -0.988281 11.078125 -0.59375 C 10.085938 -0.195312 9.019531 0 7.875 0 Z M 5.5625 -0.28125 L 7.875 -0.28125 C 8.65625 -0.28125 9.289062 -0.484375 9.78125 -0.890625 C 10.269531 -1.304688 10.648438 -1.867188 10.921875 -2.578125 C 11.203125 -3.296875 11.390625 -4.097656 11.484375 -4.984375 C 11.585938 -5.878906 11.640625 -6.800781 11.640625 -7.75 C 11.640625 -8.632812 11.582031 -9.515625 11.46875 -10.390625 C 11.363281 -11.273438 11.164062 -12.078125 10.875 -12.796875 C 10.59375 -13.523438 10.210938 -14.109375 9.734375 -14.546875 C 9.253906 -14.992188 8.632812 -15.21875 7.875 -15.21875 L 5.5625 -15.21875 Z M 5.5625 -0.28125 "/></g></g></g><g fill="#d80101" fill-opacity="1"><g transform="translate(56.590796, 25.377402)"><g><path d="M 1.390625 0 L 1.390625 -15.484375 L 5.0625 -15.484375 L 5.0625 0 Z M 1.390625 0 "/></g></g></g><g fill="#d80101" fill-opacity="1"><g transform="translate(62.75735, 25.377402)"><g><path d="M 1.390625 0 L 1.390625 -15.484375 L 5.5625 -15.484375 L 5.5625 -0.28125 L 7.5 -0.28125 C 8.5625 -0.28125 9.570312 -0.492188 10.53125 -0.921875 C 11.488281 -1.359375 12.28125 -1.953125 12.90625 -2.703125 C 13.539062 -3.460938 13.882812 -4.320312 13.9375 -5.28125 L 14.21875 -5.28125 L 13.75 0 Z M 1.390625 0 "/></g></g></g><g fill="#d80101" fill-opacity="1"><g transform="translate(78.077097, 25.377402)"><g><path d="M 0.421875 0 L 7.5 -15.703125 L 15.40625 0 L 10.8125 0 L 8.71875 -4.640625 L 2.828125 -4.640625 L 0.71875 0 Z M 2.953125 -4.921875 L 8.59375 -4.921875 L 5.78125 -11.125 Z M 2.953125 -4.921875 "/></g></g></g><g fill="#d80101" fill-opacity="1"><g transform="translate(93.618066, 25.377402)"><g><path d="M 1.390625 0 L 1.390625 -15.484375 L 5.5625 -15.484375 L 5.5625 -7.96875 L 11.140625 -7.96875 L 11.140625 -15.484375 L 15.328125 -15.484375 L 15.328125 0 L 11.140625 0 L 11.140625 -7.6875 L 5.5625 -7.6875 L 5.5625 0 Z M 1.390625 0 "/></g></g></g><g fill="#d80101" fill-opacity="1"><g transform="translate(110.043937, 25.377402)"><g/></g></g><g fill="#d80101" fill-opacity="1"><g transform="translate(115.380893, 25.377402)"><g><path d="M 6.140625 0 L 6.140625 -15.21875 C 5.066406 -15.21875 4.117188 -15.007812 3.296875 -14.59375 C 2.484375 -14.175781 1.84375 -13.601562 1.375 -12.875 C 0.914062 -12.144531 0.6875 -11.300781 0.6875 -10.34375 L 0.421875 -10.34375 L 0.421875 -15.484375 L 16.046875 -15.484375 L 16.046875 -10.34375 L 15.765625 -10.34375 C 15.765625 -11.300781 15.53125 -12.144531 15.0625 -12.875 C 14.601562 -13.601562 13.960938 -14.175781 13.140625 -14.59375 C 12.328125 -15.007812 11.382812 -15.21875 10.3125 -15.21875 L 10.3125 0 Z M 6.140625 0 "/></g></g></g><g fill="#d80101" fill-opacity="1"><g transform="translate(131.557888, 25.377402)"><g><path d="M 1.390625 0 L 1.390625 -15.484375 L 7.9375 -15.484375 C 9.039062 -15.484375 10.015625 -15.363281 10.859375 -15.125 C 11.710938 -14.882812 12.378906 -14.503906 12.859375 -13.984375 C 13.335938 -13.472656 13.578125 -12.785156 13.578125 -11.921875 C 13.578125 -11.304688 13.347656 -10.734375 12.890625 -10.203125 C 12.441406 -9.671875 11.878906 -9.238281 11.203125 -8.90625 C 10.535156 -8.570312 9.851562 -8.40625 9.15625 -8.40625 C 10.070312 -8.40625 10.8125 -8.285156 11.375 -8.046875 C 11.9375 -7.804688 12.394531 -7.457031 12.75 -7 C 13.101562 -6.539062 13.410156 -5.988281 13.671875 -5.34375 C 13.941406 -4.695312 14.234375 -3.957031 14.546875 -3.125 C 14.878906 -2.28125 15.195312 -1.628906 15.5 -1.171875 C 15.800781 -0.722656 16.046875 -0.414062 16.234375 -0.25 C 16.429688 -0.0820312 16.53125 0 16.53125 0 C 16.53125 0 16.269531 0.03125 15.75 0.09375 C 15.238281 0.15625 14.457031 0.125 13.40625 0 C 12.539062 -0.113281 11.878906 -0.394531 11.421875 -0.84375 C 10.960938 -1.289062 10.609375 -1.828125 10.359375 -2.453125 C 10.109375 -3.085938 9.890625 -3.742188 9.703125 -4.421875 C 9.523438 -5.109375 9.296875 -5.75 9.015625 -6.34375 C 8.734375 -6.945312 8.328125 -7.429688 7.796875 -7.796875 C 7.265625 -8.171875 6.519531 -8.359375 5.5625 -8.359375 L 5.5625 0 Z M 5.5625 -8.578125 L 7.03125 -8.578125 C 7.851562 -8.578125 8.410156 -8.878906 8.703125 -9.484375 C 9.003906 -10.097656 9.15625 -10.882812 9.15625 -11.84375 C 9.15625 -12.8125 8.988281 -13.628906 8.65625 -14.296875 C 8.320312 -14.960938 7.742188 -15.296875 6.921875 -15.296875 L 5.5625 -15.296875 Z M 5.5625 -8.578125 "/></g></g></g><g fill="#d80101" fill-opacity="1"><g transform="translate(148.232639, 25.377402)"><g><path d="M 1.390625 0 L 1.390625 -15.484375 L 5.0625 -15.484375 L 5.0625 0 Z M 1.390625 0 "/></g></g></g><g fill="#d80101" fill-opacity="1"><g transform="translate(154.39919, 25.377402)"><g><path d="M 7.46875 0.28125 C 6.34375 0.28125 5.269531 0.101562 4.25 -0.25 C 3.238281 -0.601562 2.414062 -1.097656 1.78125 -1.734375 C 1.144531 -2.378906 0.828125 -3.15625 0.828125 -4.0625 C 0.828125 -4.613281 1.007812 -5.054688 1.375 -5.390625 C 1.75 -5.722656 2.203125 -5.890625 2.734375 -5.890625 C 3.421875 -5.890625 3.96875 -5.675781 4.375 -5.25 C 4.78125 -4.832031 4.984375 -4.335938 4.984375 -3.765625 C 4.984375 -3.765625 4.910156 -3.738281 4.765625 -3.6875 C 4.628906 -3.644531 4.484375 -3.554688 4.328125 -3.421875 C 4.171875 -3.296875 4.066406 -3.085938 4.015625 -2.796875 C 3.992188 -2.722656 3.984375 -2.648438 3.984375 -2.578125 C 3.984375 -2.503906 3.984375 -2.425781 3.984375 -2.34375 C 3.984375 -1.8125 4.148438 -1.378906 4.484375 -1.046875 C 4.828125 -0.710938 5.253906 -0.46875 5.765625 -0.3125 C 6.285156 -0.15625 6.796875 -0.078125 7.296875 -0.078125 C 7.679688 -0.078125 8.128906 -0.132812 8.640625 -0.25 C 9.148438 -0.363281 9.59375 -0.570312 9.96875 -0.875 C 10.34375 -1.175781 10.53125 -1.601562 10.53125 -2.15625 C 10.53125 -2.75 10.316406 -3.265625 9.890625 -3.703125 C 9.472656 -4.148438 8.921875 -4.554688 8.234375 -4.921875 C 7.554688 -5.285156 6.828125 -5.65625 6.046875 -6.03125 C 5.273438 -6.414062 4.539062 -6.820312 3.84375 -7.25 C 3.144531 -7.6875 2.554688 -8.179688 2.078125 -8.734375 C 1.597656 -9.285156 1.3125 -9.941406 1.21875 -10.703125 C 1.082031 -11.867188 1.273438 -12.816406 1.796875 -13.546875 C 2.328125 -14.285156 3.066406 -14.828125 4.015625 -15.171875 C 4.972656 -15.523438 6.019531 -15.703125 7.15625 -15.703125 C 8.101562 -15.703125 8.988281 -15.546875 9.8125 -15.234375 C 10.644531 -14.921875 11.316406 -14.46875 11.828125 -13.875 C 12.347656 -13.289062 12.609375 -12.582031 12.609375 -11.75 C 12.609375 -11.269531 12.453125 -10.882812 12.140625 -10.59375 C 11.828125 -10.3125 11.429688 -10.171875 10.953125 -10.171875 C 10.359375 -10.171875 9.878906 -10.359375 9.515625 -10.734375 C 9.160156 -11.117188 8.984375 -11.550781 8.984375 -12.03125 C 8.984375 -12.03125 9.0625 -12.054688 9.21875 -12.109375 C 9.375 -12.171875 9.53125 -12.304688 9.6875 -12.515625 C 9.84375 -12.722656 9.921875 -13.0625 9.921875 -13.53125 C 9.921875 -14.082031 9.671875 -14.519531 9.171875 -14.84375 C 8.679688 -15.164062 8.03125 -15.328125 7.21875 -15.328125 C 6.476562 -15.328125 5.835938 -15.164062 5.296875 -14.84375 C 4.753906 -14.53125 4.484375 -14 4.484375 -13.25 C 4.484375 -12.625 4.695312 -12.078125 5.125 -11.609375 C 5.5625 -11.148438 6.117188 -10.734375 6.796875 -10.359375 C 7.484375 -9.992188 8.210938 -9.632812 8.984375 -9.28125 C 9.765625 -8.9375 10.507812 -8.570312 11.21875 -8.1875 C 11.925781 -7.800781 12.519531 -7.359375 13 -6.859375 C 13.476562 -6.359375 13.742188 -5.769531 13.796875 -5.09375 C 13.941406 -3.945312 13.734375 -2.972656 13.171875 -2.171875 C 12.609375 -1.367188 11.820312 -0.757812 10.8125 -0.34375 C 9.800781 0.0703125 8.6875 0.28125 7.46875 0.28125 Z M 7.46875 0.28125 "/></g></g></g><g fill="#d80101" fill-opacity="1"><g transform="translate(168.806378, 25.377402)"><g><path d="M 14.578125 0.4375 L 1.65625 -13.28125 L 1.65625 0 L 1.390625 0 L 1.390625 -15.484375 L 5.8125 -15.484375 L 14.296875 -6.140625 L 14.296875 -15.484375 L 14.578125 -15.484375 Z M 14.578125 0.4375 "/></g></g></g><g fill="#d80101" fill-opacity="1"><g transform="translate(184.485616, 25.377402)"><g><path d="M 0.421875 0 L 7.5 -15.703125 L 15.40625 0 L 10.8125 0 L 8.71875 -4.640625 L 2.828125 -4.640625 L 0.71875 0 Z M 2.953125 -4.921875 L 8.59375 -4.921875 L 5.78125 -11.125 Z M 2.953125 -4.921875 "/></g></g></g></svg>